{"title":"Big.School.S01.HDTV.x264.Iou1","uid":8945437,"size":1453339034,"categoryP":"video","categoryS":"tv_shows","magnet":"?xt=urn:btih:3e2650394d1660adba7e9ab1c28f8425db1d8a7a&amp;dn=Big.School.S01.HDTV.x264.Iou1&amp;tr=udp%3A%2F%2Ftracker.openbittorrent.com%3A80&amp;tr=udp%3A%2F%2Fopen.demonii.com%3A1337&amp;tr=udp%3A%2F%2Ftracker.coppersurfer.tk%3A6969&amp;tr=udp%3A%2F%2Fexodus.desync.com%3A6969","seeders":1,"leechers":0,"uploader":"jaybee211","files":-1,"time":1379763130,"description":"Genre                                    : Comedy\nFormat                                   : MPEG-4\nFormat profile                           : Base Media / Version 2\nCodec ID                                 : mp42\nFile size                                : 1.35 GiB\nDuration                                 : 2h 52mn 39s\nOverall bit rate mode                    : Variable\nOverall bit rate                         : 1 120 Kbps\n\nVideo\nID                                       : 1\nFormat                                   : AVC\nFormat/Info                              : Advanced Video Codec\nFormat profile                           : &lt;a class=&quot;__cf_email__&quot; href=&quot;/cdn-cgi/l/email-protection&quot; data-cfemail=&quot;f8b0919f90b8b4cbd6c8&quot;&gt;[email&amp;#160;protected]&lt;/a&gt;&lt;script cf-hash='f9e31' type=&quot;text/javascript&quot;&gt;\n/* &lt;![CDATA[ */!function(){try{var t=&quot;currentScript&quot;in document?document.currentScript:function(){for(var t=document.getElementsByTagName(&quot;script&quot;),e=t.length;e--;)if(t[e].getAttribute(&quot;cf-hash&quot;))return t[e]}();if(t&amp;&amp;t.previousSibling){var e,r,n,i,c=t.previousSibling,a=c.getAttribute(&quot;data-cfemail&quot;);if(a){for(e=&quot;&quot;,r=parseInt(a.substr(0,2),16),n=2;a.length-n;n+=2)i=parseInt(a.substr(n,2),16)^r,e+=String.fromCharCode(i);e=document.createTextNode(e),c.parentNode.replaceChild(e,c)}}}catch(u){}}();/* ]]&gt; */&lt;/script&gt;\nFormat settings, CABAC                   : Yes\nFormat settings, ReFrames                : 4 frames\nCodec ID                                 : avc1\nCodec ID/Info                            : Advanced Video Coding\nDuration                                 : 2h 52mn 39s\nBit rate mode                            : Variable\nBit rate                                 : 1 022 Kbps\nMaximum bit rate                         : 3 843 Kbps\nWidth                                    : 720 pixels\nHeight                                   : 404 pixels\nDisplay aspect ratio                     : 16:9\nFrame rate mode                          : Constant\nFrame rate                               : 25.000 fps\nStandard                                 : PAL\nColor space                              : YUV\nChroma subsampling                       : 4:2:0\nBit depth                                : 8 bits\nScan type                                : Progressive\nBits/(Pixel*Frame)                       : 0.140\nStream size                              : 1.23 GiB (91%)\n\nAudio\nID                                       : 2\nFormat                                   : AAC\nFormat/Info                              : Advanced Audio Codec\nFormat profile                           : LC\nCodec ID                                 : 40\nDuration                                 : 2h 52mn 39s\nBit rate mode                            : Variable\nBit rate                                 : 93.8 Kbps\nMaximum bit rate                         : 105 Kbps\nChannel(s)                               : 2 channels\nChannel positions                        : Front: L R\nSampling rate                            : 48.0 KHz\nCompression mode                         : Lossy\nStream size                              : 120 MiB (8%)\nTitle                                    : AAC 2-ch 48KHz\nLanguage                                 : English\nFiles                                    : 6\n\nBig.School.S01E01  \nBig.School.S01E02\nBig.School.S01E03\nBig.School.S01E04\nBig.School.S01E05\nBig.School.S01E06\nBig.School.S01E06\n\nIMDB. &lt;a href=&quot; http://www.imdb.com/title/tt2827534/&quot; rel=&quot;nofollow&quot; target=&quot;_NEW&quot;&gt; http://www.imdb.com/title/tt2827534/&lt;/a&gt;\n\nScreens. &lt;a href=&quot; http://bayimg.com/hapOJAAEm&quot; rel=&quot;nofollow&quot; target=&quot;_NEW&quot;&gt; http://bayimg.com/hapOJAAEm&lt;/a&gt;\n\nEnjoy.","torrent":{"xt":"urn:btih:3e2650394d1660adba7e9ab1c28f8425db1d8a7a","amp;dn":"Big.School.S01.HDTV.x264.Iou1","amp;tr":["udp%3A%2F%2Ftracker.openbittorrent.com%3A80","udp%3A%2F%2Fopen.demonii.com%3A1337","udp%3A%2F%2Ftracker.coppersurfer.tk%3A6969","udp%3A%2F%2Fexodus.desync.com%3A6969"],"infoHash":"3e2650394d1660adba7e9ab1c28f8425db1d8a7a","infoHashBuffer":{"type":"Buffer","data":[62,38,80,57,77,22,96,173,186,126,154,177,194,143,132,37,219,29,138,122]},"announce":[],"urlList":[]}}